<svg width="28" height="28" viewBox="0 0 28 28" fill="none" xmlns="http://www.w3.org/2000/svg">
<path d="M13.9997 26.5413C7.08134 26.5413 1.45801 20.918 1.45801 13.9997C1.45801 7.08134 7.08134 1.45801 13.9997 1.45801C20.918 1.45801 26.5413 7.08134 26.5413 13.9997C26.5413 20.918 20.918 26.5413 13.9997 26.5413ZM13.9997 3.20801C8.04967 3.20801 3.20801 8.04967 3.20801 13.9997C3.20801 19.9497 8.04967 24.7913 13.9997 24.7913C19.9497 24.7913 24.7913 19.9497 24.7913 13.9997C24.7913 8.04967 19.9497 3.20801 13.9997 3.20801Z" fill="#007E99"/>
<path d="M10.6983 18.1766C10.4766 18.1766 10.2549 18.0949 10.0799 17.9199C9.74159 17.5816 9.74159 17.0216 10.0799 16.6833L16.6833 10.0799C17.0216 9.74159 17.5816 9.74159 17.9199 10.0799C18.2583 10.4183 18.2583 10.9783 17.9199 11.3166L11.3166 17.9199C11.1533 18.0949 10.9199 18.1766 10.6983 18.1766Z" fill="#007E99"/>
<path d="M17.3016 18.1766C17.0799 18.1766 16.8583 18.0949 16.6833 17.9199L10.0799 11.3166C9.74159 10.9783 9.74159 10.4183 10.0799 10.0799C10.4183 9.74159 10.9783 9.74159 11.3166 10.0799L17.9199 16.6833C18.2583 17.0216 18.2583 17.5816 17.9199 17.9199C17.7449 18.0949 17.5233 18.1766 17.3016 18.1766Z" fill="#007E99"/>
</svg>
