<svg width="106" height="92" viewBox="0 0 106 92" fill="none" xmlns="http://www.w3.org/2000/svg">
<g filter="url(#filter0_d_949_27584)">
<rect x="20" y="16" width="66" height="52" rx="16" fill="#E6F2F5"/>
<path d="M56.9993 56.3327H48.9993C41.7593 56.3327 38.666 53.2393 38.666 45.9993V37.9993C38.666 30.7593 41.7593 27.666 48.9993 27.666H56.9993C64.2393 27.666 67.3327 30.7593 67.3327 37.9993V45.9993C67.3327 53.2393 64.2393 56.3327 56.9993 56.3327ZM48.9993 29.666C42.8527 29.666 40.666 31.8527 40.666 37.9993V45.9993C40.666 52.146 42.8527 54.3327 48.9993 54.3327H56.9993C63.146 54.3327 65.3327 52.146 65.3327 45.9993V37.9993C65.3327 31.8527 63.146 29.666 56.9993 29.666H48.9993Z" fill="#00191F"/>
<path d="M46.7728 46.32C46.5595 46.32 46.3462 46.2533 46.1595 46.1067C45.7195 45.7733 45.6395 45.1467 45.9728 44.7067L49.1462 40.5867C49.5328 40.0933 50.0795 39.7733 50.7062 39.6933C51.3195 39.6133 51.9462 39.7867 52.4395 40.1733L54.8795 42.0933C54.9728 42.1733 55.0662 42.1733 55.1328 42.16C55.1862 42.16 55.2795 42.1333 55.3595 42.0267L58.4395 38.0533C58.7728 37.6133 59.4128 37.5333 59.8395 37.88C60.2795 38.2133 60.3595 38.84 60.0128 39.28L56.9328 43.2533C56.5462 43.7467 55.9995 44.0667 55.3728 44.1333C54.7462 44.2133 54.1328 44.04 53.6395 43.6533L51.1995 41.7333C51.1062 41.6533 50.9995 41.6533 50.9462 41.6667C50.8928 41.6667 50.7995 41.6933 50.7195 41.8L47.5462 45.92C47.3728 46.1867 47.0795 46.32 46.7728 46.32Z" fill="#00191F"/>
<rect x="20.5" y="16.5" width="65" height="51" rx="15.5" stroke="#E6F2F5"/>
</g>
<defs>
<filter id="filter0_d_949_27584" x="0" y="0" width="106" height="92" filterUnits="userSpaceOnUse" color-interpolation-filters="sRGB">
<feFlood flood-opacity="0" result="BackgroundImageFix"/>
<feColorMatrix in="SourceAlpha" type="matrix" values="0 0 0 0 0 0 0 0 0 0 0 0 0 0 0 0 0 0 127 0" result="hardAlpha"/>
<feOffset dy="4"/>
<feGaussianBlur stdDeviation="10"/>
<feComposite in2="hardAlpha" operator="out"/>
<feColorMatrix type="matrix" values="0 0 0 0 0.901961 0 0 0 0 0.94902 0 0 0 0 0.960784 0 0 0 1 0"/>
<feBlend mode="normal" in2="BackgroundImageFix" result="effect1_dropShadow_949_27584"/>
<feBlend mode="normal" in="SourceGraphic" in2="effect1_dropShadow_949_27584" result="shape"/>
</filter>
</defs>
</svg>
