<svg width="106" height="92" viewBox="0 0 106 92" fill="none" xmlns="http://www.w3.org/2000/svg">
<g filter="url(#filter0_d_949_27463)">
<rect x="20" y="16" width="66" height="52" rx="16" fill="#E6F2F5"/>
<path d="M47.666 33.666C47.1193 33.666 46.666 33.2127 46.666 32.666V28.666C46.666 28.1193 47.1193 27.666 47.666 27.666C48.2127 27.666 48.666 28.1193 48.666 28.666V32.666C48.666 33.2127 48.2127 33.666 47.666 33.666Z" fill="#00191F"/>
<path d="M58.334 33.666C57.7873 33.666 57.334 33.2127 57.334 32.666V28.666C57.334 28.1193 57.7873 27.666 58.334 27.666C58.8807 27.666 59.334 28.1193 59.334 28.666V32.666C59.334 33.2127 58.8807 33.666 58.334 33.666Z" fill="#00191F"/>
<path d="M48.3333 45.3331C48.16 45.3331 47.9867 45.2931 47.8267 45.2264C47.6533 45.1598 47.52 45.0664 47.3867 44.9464C47.1467 44.6931 47 44.3598 47 43.9998C47 43.8264 47.04 43.6531 47.1067 43.4931C47.1733 43.3331 47.2667 43.1864 47.3867 43.0531C47.52 42.9331 47.6533 42.8397 47.8267 42.7731C48.3067 42.5731 48.9067 42.6798 49.28 43.0531C49.52 43.3064 49.6667 43.6531 49.6667 43.9998C49.6667 44.0798 49.6533 44.1731 49.64 44.2664C49.6267 44.3464 49.6 44.4264 49.56 44.5064C49.5333 44.5864 49.4933 44.6664 49.44 44.7464C49.4 44.8131 49.3333 44.8798 49.28 44.9464C49.0267 45.1864 48.68 45.3331 48.3333 45.3331Z" fill="#00191F"/>
<path d="M52.9993 45.3332C52.826 45.3332 52.6527 45.2932 52.4927 45.2265C52.3193 45.1598 52.186 45.0665 52.0527 44.9465C51.8127 44.6932 51.666 44.3598 51.666 43.9998C51.666 43.8265 51.706 43.6532 51.7727 43.4932C51.8394 43.3332 51.9327 43.1865 52.0527 43.0532C52.186 42.9332 52.3193 42.8398 52.4927 42.7731C52.9727 42.5598 53.5727 42.6798 53.946 43.0532C54.186 43.3065 54.3327 43.6532 54.3327 43.9998C54.3327 44.0798 54.3193 44.1732 54.306 44.2665C54.2927 44.3465 54.266 44.4265 54.226 44.5065C54.1993 44.5865 54.1594 44.6665 54.106 44.7465C54.066 44.8132 53.9993 44.8798 53.946 44.9465C53.6927 45.1865 53.346 45.3332 52.9993 45.3332Z" fill="#00191F"/>
<path d="M57.6673 45.3332C57.494 45.3332 57.3206 45.2932 57.1606 45.2265C56.9873 45.1598 56.854 45.0665 56.7207 44.9465C56.6673 44.8798 56.614 44.8132 56.5606 44.7465C56.5073 44.6665 56.4673 44.5865 56.4407 44.5065C56.4007 44.4265 56.374 44.3465 56.3607 44.2665C56.3473 44.1732 56.334 44.0798 56.334 43.9998C56.334 43.6532 56.4807 43.3065 56.7207 43.0532C56.854 42.9332 56.9873 42.8398 57.1606 42.7731C57.654 42.5598 58.2406 42.6798 58.614 43.0532C58.854 43.3065 59.0007 43.6532 59.0007 43.9998C59.0007 44.0798 58.9873 44.1732 58.974 44.2665C58.9607 44.3465 58.934 44.4265 58.894 44.5065C58.8673 44.5865 58.8273 44.6665 58.774 44.7465C58.734 44.8132 58.6673 44.8798 58.614 44.9465C58.3606 45.1865 58.014 45.3332 57.6673 45.3332Z" fill="#00191F"/>
<path d="M48.3333 49.9996C48.16 49.9996 47.9867 49.9596 47.8267 49.8929C47.6667 49.8263 47.52 49.7329 47.3867 49.6129C47.1467 49.3596 47 49.0129 47 48.6663C47 48.4929 47.04 48.3196 47.1067 48.1596C47.1733 47.9863 47.2667 47.8396 47.3867 47.7196C47.88 47.2263 48.7867 47.2263 49.28 47.7196C49.52 47.9729 49.6667 48.3196 49.6667 48.6663C49.6667 49.0129 49.52 49.3596 49.28 49.6129C49.0267 49.8529 48.68 49.9996 48.3333 49.9996Z" fill="#00191F"/>
<path d="M52.9993 49.9996C52.6527 49.9996 52.306 49.8529 52.0527 49.6129C51.8127 49.3596 51.666 49.0129 51.666 48.6663C51.666 48.4929 51.706 48.3196 51.7727 48.1596C51.8394 47.9863 51.9327 47.8396 52.0527 47.7196C52.546 47.2263 53.4527 47.2263 53.946 47.7196C54.066 47.8396 54.1593 47.9863 54.226 48.1596C54.2927 48.3196 54.3327 48.4929 54.3327 48.6663C54.3327 49.0129 54.186 49.3596 53.946 49.6129C53.6927 49.8529 53.346 49.9996 52.9993 49.9996Z" fill="#00191F"/>
<path d="M57.6673 49.9999C57.3207 49.9999 56.974 49.8532 56.7207 49.6132C56.6007 49.4932 56.5073 49.3466 56.4407 49.1732C56.374 49.0132 56.334 48.8399 56.334 48.6666C56.334 48.4932 56.374 48.3199 56.4407 48.1599C56.5073 47.9865 56.6007 47.8399 56.7207 47.7199C57.0273 47.4132 57.494 47.2665 57.9206 47.3599C58.014 47.3732 58.094 47.3999 58.174 47.4399C58.254 47.4665 58.334 47.5066 58.414 47.5599C58.4807 47.5999 58.5473 47.6666 58.614 47.7199C58.854 47.9732 59.0007 48.3199 59.0007 48.6666C59.0007 49.0132 58.854 49.3599 58.614 49.6132C58.3606 49.8532 58.014 49.9999 57.6673 49.9999Z" fill="#00191F"/>
<path d="M64.3327 39.1191H41.666C41.1193 39.1191 40.666 38.6658 40.666 38.1191C40.666 37.5725 41.1193 37.1191 41.666 37.1191H64.3327C64.8793 37.1191 65.3327 37.5725 65.3327 38.1191C65.3327 38.6658 64.8793 39.1191 64.3327 39.1191Z" fill="#00191F"/>
<path d="M58.3333 56.3327H47.6667C42.8 56.3327 40 53.5327 40 48.666V37.3327C40 32.466 42.8 29.666 47.6667 29.666H58.3333C63.2 29.666 66 32.466 66 37.3327V48.666C66 53.5327 63.2 56.3327 58.3333 56.3327ZM47.6667 31.666C43.8533 31.666 42 33.5193 42 37.3327V48.666C42 52.4793 43.8533 54.3327 47.6667 54.3327H58.3333C62.1467 54.3327 64 52.4793 64 48.666V37.3327C64 33.5193 62.1467 31.666 58.3333 31.666H47.6667Z" fill="#00191F"/>
<rect x="20.5" y="16.5" width="65" height="51" rx="15.5" stroke="#E6F2F5"/>
</g>
<defs>
<filter id="filter0_d_949_27463" x="0" y="0" width="106" height="92" filterUnits="userSpaceOnUse" color-interpolation-filters="sRGB">
<feFlood flood-opacity="0" result="BackgroundImageFix"/>
<feColorMatrix in="SourceAlpha" type="matrix" values="0 0 0 0 0 0 0 0 0 0 0 0 0 0 0 0 0 0 127 0" result="hardAlpha"/>
<feOffset dy="4"/>
<feGaussianBlur stdDeviation="10"/>
<feComposite in2="hardAlpha" operator="out"/>
<feColorMatrix type="matrix" values="0 0 0 0 0.901961 0 0 0 0 0.94902 0 0 0 0 0.960784 0 0 0 1 0"/>
<feBlend mode="normal" in2="BackgroundImageFix" result="effect1_dropShadow_949_27463"/>
<feBlend mode="normal" in="SourceGraphic" in2="effect1_dropShadow_949_27463" result="shape"/>
</filter>
</defs>
</svg>
