<svg width="106" height="80" viewBox="0 0 106 80" fill="none" xmlns="http://www.w3.org/2000/svg">
<path d="M33.2509 64.0624L11.5634 42.3749C10.3948 41.2063 8.80982 40.5498 7.15716 40.5498C5.5045 40.5498 3.91952 41.2063 2.75091 42.3749C1.5823 43.5435 0.925781 45.1285 0.925781 46.7812C0.925781 47.5995 1.08696 48.4098 1.40012 49.1658C1.71327 49.9219 2.17227 50.6088 2.75091 51.1874L28.8759 77.3124C31.3134 79.7499 35.2509 79.7499 37.6884 77.3124L103.813 11.1874C104.982 10.0188 105.639 8.43385 105.639 6.78118C105.639 5.12852 104.982 3.54354 103.813 2.37493C102.645 1.20632 101.06 0.549805 99.4072 0.549805C97.7545 0.549805 96.1695 1.20632 95.0009 2.37493L33.2509 64.0624Z" fill="#007E99"/>
</svg>
