<svg width="24" height="14" viewBox="0 0 24 14" fill="none" xmlns="http://www.w3.org/2000/svg">
<path d="M1.38301 0.841797C1.67467 0.55013 2.02001 0.404297 2.41901 0.404297C2.81801 0.404297 3.16295 0.55013 3.45384 0.841797L11.9997 9.38763L20.5747 0.81263C20.8469 0.540408 21.1872 0.404297 21.5955 0.404297C22.0038 0.404297 22.3538 0.55013 22.6455 0.841797C22.9372 1.13346 23.083 1.4788 23.083 1.8778C23.083 2.2768 22.9372 2.62174 22.6455 2.91263L12.8163 12.7126C12.6997 12.8293 12.5733 12.9121 12.4372 12.9611C12.3011 13.0101 12.1552 13.0342 11.9997 13.0335C11.8441 13.0335 11.6983 13.009 11.5622 12.96C11.4261 12.911 11.2997 12.8285 11.183 12.7126L1.35384 2.88346C1.08162 2.61124 0.945505 2.27563 0.945505 1.87663C0.945505 1.47763 1.09134 1.13269 1.38301 0.841797Z" fill="#007E99"/>
</svg>
