<svg width="57" height="57" viewBox="0 0 57 57" fill="none" xmlns="http://www.w3.org/2000/svg">
<circle cx="28.3184" cy="28.4092" r="28.3066" fill="#007E99"/>
<path d="M28.806 42.9816C20.8993 42.9816 14.4727 36.5549 14.4727 28.6483C14.4727 20.7416 20.8993 14.3149 28.806 14.3149C36.7127 14.3149 43.1393 20.7416 43.1393 28.6483C43.1393 36.5549 36.7127 42.9816 28.806 42.9816ZM28.806 16.3149C22.006 16.3149 16.4727 21.8483 16.4727 28.6483C16.4727 35.4483 22.006 40.9816 28.806 40.9816C35.606 40.9816 41.1393 35.4483 41.1393 28.6483C41.1393 21.8483 35.606 16.3149 28.806 16.3149Z" fill="#E6F2F5"/>
<path d="M33.7509 33.8883C33.5776 33.8883 33.4042 33.8483 33.2442 33.7416L29.1109 31.275C28.0842 30.6616 27.3242 29.315 27.3242 28.1283V22.6616C27.3242 22.115 27.7776 21.6616 28.3242 21.6616C28.8709 21.6616 29.3242 22.115 29.3242 22.6616V28.1283C29.3242 28.6083 29.7242 29.315 30.1376 29.555L34.2709 32.0216C34.7509 32.3016 34.8976 32.915 34.6176 33.395C34.4176 33.715 34.0842 33.8883 33.7509 33.8883Z" fill="#E6F2F5"/>
</svg>
