<svg width="41" height="41" viewBox="0 0 41 41" fill="none" xmlns="http://www.w3.org/2000/svg">
<path d="M25.4606 37.9935H15.4606C6.41061 37.9935 2.54395 34.1268 2.54395 25.0768V15.0768C2.54395 6.02682 6.41061 2.16016 15.4606 2.16016H25.4606C34.5106 2.16016 38.3773 6.02682 38.3773 15.0768V25.0768C38.3773 34.1268 34.5273 37.9935 25.4606 37.9935ZM15.4606 4.66016C7.77728 4.66016 5.04395 7.39349 5.04395 15.0768V25.0768C5.04395 32.7602 7.77728 35.4935 15.4606 35.4935H25.4606C33.1439 35.4935 35.8773 32.7602 35.8773 25.0768V15.0768C35.8773 7.39349 33.1439 4.66016 25.4606 4.66016H15.4606Z" fill="#00191F"/>
<path d="M19.5943 30.1763C19.1943 30.1763 18.2276 30.0263 17.661 28.5763L15.761 23.7763C15.4943 23.093 14.5443 22.4596 13.8276 22.4596L3.82764 22.493C3.1443 22.493 2.57764 21.943 2.57764 21.243C2.57764 20.5596 3.12764 19.993 3.82764 19.993L13.8276 19.9596H13.8443C15.5943 19.9596 17.461 21.2263 18.111 22.8596L19.6276 26.693L23.061 17.993C23.5776 16.693 24.4943 16.5096 24.8776 16.4763C25.261 16.4596 26.1943 16.543 26.8443 17.7763L28.5776 21.0596C28.8776 21.6263 29.7776 22.1763 30.4276 22.1763H37.1943C37.8776 22.1763 38.4443 22.743 38.4443 23.4263C38.4443 24.1096 37.8776 24.6763 37.1943 24.6763H30.4276C28.8443 24.6763 27.111 23.6263 26.3776 22.2263L25.0776 19.7596L21.5776 28.5763C20.961 30.0096 19.9776 30.1763 19.5943 30.1763Z" fill="#00191F"/>
</svg>
