<svg width="41" height="41" viewBox="0 0 41 41" fill="none" xmlns="http://www.w3.org/2000/svg">
<path d="M35.5107 37.9922H5.51074C4.82741 37.9922 4.26074 37.4255 4.26074 36.7422C4.26074 36.0589 4.82741 35.4922 5.51074 35.4922H35.5107C36.1941 35.4922 36.7607 36.0589 36.7607 36.7422C36.7607 37.4255 36.1941 37.9922 35.5107 37.9922Z" fill="#00191F"/>
<path d="M9.84403 32.993H7.17741C5.57741 32.993 4.26074 31.6763 4.26074 30.0763V15.7096C4.26074 14.1096 5.57741 12.793 7.17741 12.793H9.84403C11.444 12.793 12.7607 14.1096 12.7607 15.7096V30.0763C12.7607 31.6763 11.444 32.993 9.84403 32.993ZM7.17741 15.2763C6.94408 15.2763 6.76074 15.4596 6.76074 15.693V30.0763C6.76074 30.3096 6.94408 30.493 7.17741 30.493H9.84403C10.0774 30.493 10.2607 30.3096 10.2607 30.0763V15.7096C10.2607 15.4763 10.0774 15.293 9.84403 15.293H7.17741V15.2763Z" fill="#00191F"/>
<path d="M21.8445 32.9932H19.1779C17.5779 32.9932 16.2612 31.6766 16.2612 30.0766V10.3932C16.2612 8.79323 17.5779 7.47656 19.1779 7.47656H21.8445C23.4445 7.47656 24.7612 8.79323 24.7612 10.3932V30.0766C24.7612 31.6766 23.4445 32.9932 21.8445 32.9932ZM19.1779 9.97656C18.9446 9.97656 18.7612 10.1599 18.7612 10.3932V30.0766C18.7612 30.3099 18.9446 30.4932 19.1779 30.4932H21.8445C22.0779 30.4932 22.2612 30.3099 22.2612 30.0766V10.3932C22.2612 10.1599 22.0779 9.97656 21.8445 9.97656H19.1779Z" fill="#00191F"/>
<path d="M33.844 32.9935H31.1774C29.5774 32.9935 28.2607 31.6768 28.2607 30.0768V5.07682C28.2607 3.47682 29.5774 2.16016 31.1774 2.16016H33.844C35.444 2.16016 36.7607 3.47682 36.7607 5.07682V30.0768C36.7607 31.6768 35.444 32.9935 33.844 32.9935ZM31.1774 4.66016C30.9441 4.66016 30.7607 4.84349 30.7607 5.07682V30.0768C30.7607 30.3102 30.9441 30.4935 31.1774 30.4935H33.844C34.0774 30.4935 34.2607 30.3102 34.2607 30.0768V5.07682C34.2607 4.84349 34.0774 4.66016 33.844 4.66016H31.1774Z" fill="#00191F"/>
</svg>
