<svg width="35" height="35" viewBox="0 0 35 35" fill="none" xmlns="http://www.w3.org/2000/svg">
<rect x="0.291992" y="0.355469" width="34.2921" height="34.2921" rx="17.1461" fill="#007E99"/>
<path d="M18.2905 9.20703C19.2243 9.20857 19.6974 9.21351 20.1063 9.22568L20.2673 9.23095C20.4533 9.23756 20.6369 9.24586 20.8581 9.25623C21.741 9.29702 22.3433 9.43669 22.8722 9.64203C23.419 9.8529 23.8809 10.1378 24.342 10.5989C24.8025 11.0601 25.0874 11.5233 25.299 12.0688C25.5036 12.5971 25.6433 13.2 25.6848 14.0829C25.6947 14.3041 25.7026 14.4876 25.7092 14.6737L25.7144 14.8347C25.7265 15.2435 25.7321 15.7168 25.7338 16.6505L25.7345 17.2692C25.7346 17.3448 25.7346 17.4228 25.7346 17.5032L25.7345 17.7373L25.734 18.356C25.7324 19.2897 25.7275 19.7629 25.7153 20.1717L25.71 20.3328C25.7034 20.5188 25.6951 20.7023 25.6848 20.9236C25.644 21.8064 25.5036 22.4087 25.299 22.9376C25.0881 23.4844 24.8025 23.9463 24.342 24.4075C23.8809 24.8679 23.4169 25.1528 22.8722 25.3644C22.3433 25.569 21.741 25.7087 20.8581 25.7502C20.6369 25.7601 20.4533 25.768 20.2673 25.7746L20.1063 25.7798C19.6974 25.7919 19.2243 25.7975 18.2905 25.7992L17.6718 25.7999C17.5963 25.8 17.5183 25.8 17.4378 25.8L17.2037 25.7999L16.5851 25.7994C15.6513 25.7978 15.1781 25.7929 14.7693 25.7807L14.6083 25.7754C14.4222 25.7689 14.2387 25.7606 14.0174 25.7502C13.1345 25.7094 12.533 25.569 12.0034 25.3644C11.4572 25.1535 10.9947 24.8679 10.5335 24.4075C10.0723 23.9463 9.78817 23.4824 9.5766 22.9376C9.37126 22.4087 9.23229 21.8064 9.1908 20.9236C9.18094 20.7023 9.17291 20.5188 9.16639 20.3328L9.16117 20.1717C9.14904 19.7629 9.1435 19.2897 9.14171 18.356L9.1416 16.6505C9.14314 15.7168 9.14808 15.2435 9.16025 14.8347L9.16552 14.6737C9.17213 14.4876 9.18043 14.3041 9.1908 14.0829C9.23159 13.1993 9.37126 12.5978 9.5766 12.0688C9.78747 11.5226 10.0723 11.0601 10.5335 10.5989C10.9947 10.1378 11.4579 9.8536 12.0034 9.64203C12.5323 9.43669 13.1338 9.29772 14.0174 9.25623C14.2387 9.24637 14.4222 9.23833 14.6083 9.23182L14.7693 9.2266C15.1781 9.21447 15.6513 9.20893 16.5851 9.20714L18.2905 9.20703ZM17.4378 13.3548C15.1455 13.3548 13.2894 15.2129 13.2894 17.5032C13.2894 19.7955 15.1475 21.6516 17.4378 21.6516C19.7301 21.6516 21.5862 19.7935 21.5862 17.5032C21.5862 15.2109 19.728 13.3548 17.4378 13.3548ZM17.4378 15.0142C18.8125 15.0142 19.9268 16.1281 19.9268 17.5032C19.9268 18.8779 18.8128 19.9923 17.4378 19.9923C16.0631 19.9923 14.9488 18.8783 14.9488 17.5032C14.9488 16.1285 16.0627 15.0142 17.4378 15.0142ZM21.7936 12.1103C21.2217 12.1103 20.7565 12.5749 20.7565 13.1467C20.7565 13.7186 21.221 14.1838 21.7936 14.1838C22.3654 14.1838 22.8307 13.7193 22.8307 13.1467C22.8307 12.5749 22.3647 12.1096 21.7936 12.1103Z" fill="white"/>
</svg>
