<svg width="35" height="35" viewBox="0 0 35 35" fill="none" xmlns="http://www.w3.org/2000/svg">
<rect y="0.5625" width="34.2921" height="34.2921" rx="17.1461" fill="#007E99"/>
<g clip-path="url(#clip0_1921_7606)">
<path d="M22.9861 23.554H20.5289V19.7037C20.5289 18.7856 20.5103 17.6041 19.2485 17.6041C17.9675 17.6041 17.7718 18.6031 17.7718 19.636V23.554H15.3146V15.6364H17.675V16.7156H17.7068C18.0366 16.0934 18.8386 15.4366 20.0367 15.4366C22.5264 15.4366 22.9868 17.0752 22.9868 19.2081L22.9861 23.554ZM12.5395 14.553C11.7485 14.553 11.1132 13.9128 11.1132 13.1254C11.1132 12.3386 11.7492 11.6991 12.5395 11.6991C13.3276 11.6991 13.9665 12.3386 13.9665 13.1254C13.9665 13.9128 13.3269 14.553 12.5395 14.553ZM13.7715 23.554H11.3074V15.6364H13.7715V23.554ZM24.2154 9.41406H10.074C9.39718 9.41406 8.84961 9.94919 8.84961 10.6094V24.8117C8.84961 25.4725 9.39718 26.007 10.074 26.007H24.2133C24.8895 26.007 25.4426 25.4725 25.4426 24.8117V10.6094C25.4426 9.94919 24.8895 9.41406 24.2133 9.41406H24.2154Z" fill="white"/>
</g>
<defs>
<clipPath id="clip0_1921_7606">
<rect width="17.6992" height="17.6992" fill="white" transform="translate(8.29639 8.85938)"/>
</clipPath>
</defs>
</svg>
