<svg width="106" height="92" viewBox="0 0 106 92" fill="none" xmlns="http://www.w3.org/2000/svg">
<g filter="url(#filter0_d_949_27401)">
<rect x="20" y="16" width="66" height="52" rx="16" fill="#E6F2F5"/>
<path d="M47.666 55.7605C47.2927 55.7605 46.906 55.6672 46.5593 55.4806C45.7993 55.0806 45.3327 54.2805 45.3327 53.4272V51.5339C41.306 51.1206 38.666 48.1605 38.666 43.9205V35.9206C38.666 31.3339 41.746 28.2539 46.3327 28.2539H59.666C64.2527 28.2539 67.3327 31.3339 67.3327 35.9206V43.9205C67.3327 48.5072 64.2527 51.5872 59.666 51.5872H54.6393L48.9593 55.3739C48.5726 55.6273 48.1193 55.7605 47.666 55.7605ZM46.3327 30.2406C42.8927 30.2406 40.666 32.4672 40.666 35.9072V43.9073C40.666 47.3473 42.8927 49.574 46.3327 49.574C46.8793 49.574 47.3327 50.0273 47.3327 50.574V53.414C47.3327 53.5873 47.4394 53.6673 47.506 53.7073C47.5727 53.7473 47.706 53.7873 47.8527 53.6939L53.7861 49.7473C53.9461 49.6406 54.146 49.574 54.346 49.574H59.6794C63.1194 49.574 65.346 47.3473 65.346 43.9073V35.9072C65.346 32.4672 63.1194 30.2406 59.6794 30.2406H46.3327Z" fill="#00191F"/>
<path d="M53.0004 42.1465C52.4537 42.1465 52.0004 41.6932 52.0004 41.1465V40.8665C52.0004 39.3199 53.1337 38.5599 53.5604 38.2665C54.0537 37.9332 54.2137 37.7065 54.2137 37.3599C54.2137 36.6932 53.6671 36.1465 53.0004 36.1465C52.3337 36.1465 51.7871 36.6932 51.7871 37.3599C51.7871 37.9065 51.3338 38.3599 50.7871 38.3599C50.2404 38.3599 49.7871 37.9065 49.7871 37.3599C49.7871 35.5865 51.2271 34.1465 53.0004 34.1465C54.7737 34.1465 56.2137 35.5865 56.2137 37.3599C56.2137 38.8799 55.0938 39.6398 54.6804 39.9198C54.1604 40.2665 54.0004 40.4932 54.0004 40.8665V41.1465C54.0004 41.7065 53.5471 42.1465 53.0004 42.1465Z" fill="#00191F"/>
<path d="M53 45.4668C52.44 45.4668 52 45.0135 52 44.4668C52 43.9201 52.4533 43.4668 53 43.4668C53.5467 43.4668 54 43.9201 54 44.4668C54 45.0135 53.56 45.4668 53 45.4668Z" fill="#00191F"/>
<rect x="20.5" y="16.5" width="65" height="51" rx="15.5" stroke="#E6F2F5"/>
</g>
<defs>
<filter id="filter0_d_949_27401" x="0" y="0" width="106" height="92" filterUnits="userSpaceOnUse" color-interpolation-filters="sRGB">
<feFlood flood-opacity="0" result="BackgroundImageFix"/>
<feColorMatrix in="SourceAlpha" type="matrix" values="0 0 0 0 0 0 0 0 0 0 0 0 0 0 0 0 0 0 127 0" result="hardAlpha"/>
<feOffset dy="4"/>
<feGaussianBlur stdDeviation="10"/>
<feComposite in2="hardAlpha" operator="out"/>
<feColorMatrix type="matrix" values="0 0 0 0 0.901961 0 0 0 0 0.94902 0 0 0 0 0.960784 0 0 0 1 0"/>
<feBlend mode="normal" in2="BackgroundImageFix" result="effect1_dropShadow_949_27401"/>
<feBlend mode="normal" in="SourceGraphic" in2="effect1_dropShadow_949_27401" result="shape"/>
</filter>
</defs>
</svg>
