<svg width="25" height="25" viewBox="0 0 25 25" fill="none" xmlns="http://www.w3.org/2000/svg">
<path d="M12.8164 23.5098C6.88641 23.5098 2.06641 18.6898 2.06641 12.7598C2.06641 6.82977 6.88641 2.00977 12.8164 2.00977C18.7464 2.00977 23.5664 6.82977 23.5664 12.7598C23.5664 18.6898 18.7464 23.5098 12.8164 23.5098ZM12.8164 3.50977C7.71641 3.50977 3.56641 7.65977 3.56641 12.7598C3.56641 17.8598 7.71641 22.0098 12.8164 22.0098C17.9164 22.0098 22.0664 17.8598 22.0664 12.7598C22.0664 7.65977 17.9164 3.50977 12.8164 3.50977Z" fill="#005466"/>
<path d="M11.3978 16.3394C11.1978 16.3394 11.0078 16.2594 10.8678 16.1194L8.03781 13.2894C7.74781 12.9994 7.74781 12.5194 8.03781 12.2294C8.32781 11.9394 8.80781 11.9394 9.09781 12.2294L11.3978 14.5294L16.5378 9.38938C16.8278 9.09938 17.3078 9.09938 17.5978 9.38938C17.8878 9.67937 17.8878 10.1594 17.5978 10.4494L11.9278 16.1194C11.7878 16.2594 11.5978 16.3394 11.3978 16.3394Z" fill="#005466"/>
</svg>
