<svg width="35" height="35" viewBox="0 0 35 35" fill="none" xmlns="http://www.w3.org/2000/svg">
<rect x="0.583984" y="0.484375" width="34.2918" height="34.4235" rx="17.1459" fill="#007E99"/>
<path d="M25.1276 13.1075C24.5735 13.3526 23.9859 13.5136 23.3842 13.5851C24.0181 13.2056 24.4924 12.6087 24.7188 11.9055C24.1232 12.2594 23.4713 12.5084 22.7914 12.6419C22.2175 12.0296 21.4153 11.6826 20.5761 11.6836C18.9001 11.6836 17.5407 13.0425 17.5407 14.7194C17.5407 14.9573 17.5679 15.188 17.619 15.4105C15.0952 15.2835 12.8593 14.0757 11.3617 12.2389C11.0921 12.7022 10.9504 13.2288 10.9511 13.7648C10.9511 14.8179 11.4872 15.7474 12.3015 16.2916C11.8194 16.2764 11.348 16.1462 10.9265 15.9118C10.9261 15.9246 10.9261 15.9373 10.9261 15.9494C10.9261 17.4206 11.9725 18.6478 13.3615 18.9265C13.1008 18.997 12.8319 19.0327 12.5618 19.0324C12.3657 19.0324 12.1753 19.0144 11.9903 18.9789C12.3768 20.1846 13.4972 21.0624 14.826 21.0865C13.7507 21.9304 12.4228 22.3883 11.0559 22.3863C10.814 22.3866 10.5723 22.3723 10.332 22.3437C11.7198 23.2358 13.3351 23.7092 14.9848 23.7075C20.5687 23.7075 23.6219 19.0821 23.6219 15.0709C23.6219 14.9396 23.6187 14.8079 23.6129 14.6781C24.2071 14.2488 24.72 13.7169 25.1276 13.1075Z" fill="white"/>
</svg>
